<?xml version="1.0" encoding="utf-8"?>
<!-- Generator: Adobe Illustrator 24.0.2, SVG Export Plug-In . SVG Version: 6.00 Build 0)  -->
<svg version="1.1" id="icono" xmlns="http://www.w3.org/2000/svg" xmlns:xlink="http://www.w3.org/1999/xlink" x="0px" y="0px"
	 viewBox="0 0 16 16" style="enable-background:new 0 0 16 16;" xml:space="preserve">
<style type="text/css">
	.st0{fill-rule:evenodd;clip-rule:evenodd;fill:#FFB7B2;}
	.st1{fill-rule:evenodd;clip-rule:evenodd;fill:#84A59E;}
	.st2{fill-rule:evenodd;clip-rule:evenodd;fill:#F28582;}
	.st3{fill-rule:evenodd;clip-rule:evenodd;fill:#F5BD60;}
</style>
<path class="st0" d="M0,6.7c0-0.3,0.2-0.5,0.5-0.5h6C6.8,6.2,7,6.5,7,6.7S6.8,7.2,6.5,7.2h-6C0.2,7.2,0,7,0,6.7"/>
<path class="st0" d="M8,6.7c0-0.3,0.2-0.5,0.5-0.5h5c0.3,0,0.5,0.2,0.5,0.5s-0.2,0.5-0.5,0.5h-5C8.2,7.2,8,7,8,6.7"/>
<path class="st0" d="M0,8.7c0-0.3,0.2-0.5,0.5-0.5h5C5.8,8.2,6,8.5,6,8.7S5.8,9.2,5.5,9.2h-5C0.2,9.2,0,9,0,8.7"/>
<path class="st0" d="M7,8.7c0-0.3,0.2-0.5,0.5-0.5h7c0.3,0,0.5,0.2,0.5,0.5s-0.2,0.5-0.5,0.5h-7C7.2,9.2,7,9,7,8.7"/>
<path class="st1" d="M0,4.7c0-0.3,0.2-0.5,0.5-0.5h3C3.8,4.2,4,4.5,4,4.7S3.8,5.2,3.5,5.2h-3C0.2,5.2,0,5,0,4.7"/>
<path class="st1" d="M5,4.7c0-0.3,0.2-0.5,0.5-0.5h5c0.3,0,0.5,0.2,0.5,0.5s-0.2,0.5-0.5,0.5h-5C5.2,5.2,5,5,5,4.7"/>
<path class="st1" d="M12,4.7c0-0.3,0.2-0.5,0.5-0.5h3c0.3,0,0.5,0.2,0.5,0.5s-0.2,0.5-0.5,0.5h-3C12.2,5.2,12,5,12,4.7"/>
<path class="st1" d="M0,10.7c0-0.3,0.2-0.5,0.5-0.5h8c0.3,0,0.5,0.2,0.5,0.5s-0.2,0.5-0.5,0.5h-8C0.2,11.2,0,11,0,10.7"/>
<path class="st2" d="M8.7,2.7c0-0.3,0.2-0.5,0.5-0.5h5c0.3,0,0.5,0.2,0.5,0.5s-0.2,0.5-0.5,0.5h-5C8.9,3.2,8.7,3,8.7,2.7"/>
<path class="st2" d="M0,12.7c0-0.3,0.2-0.5,0.5-0.5h4c0.3,0,0.5,0.2,0.5,0.5s-0.2,0.5-0.5,0.5h-4C0.2,13.2,0,13,0,12.7"/>
<path class="st2" d="M0,2.7c0-0.3,0.2-0.5,0.5-0.5h7C7.8,2.2,8,2.5,8,2.7S7.8,3.2,7.5,3.2h-7C0.2,3.2,0,3,0,2.7"/>
<path class="st3" d="M0,14.7c0-0.3,0.2-0.5,0.5-0.5h2c0.3,0,0.5,0.2,0.5,0.5s-0.2,0.5-0.5,0.5h-2C0.2,15.2,0,15,0,14.7"/>
<path class="st3" d="M0,0.7c0-0.3,0.2-0.5,0.5-0.5h4C4.8,0.2,5,0.5,5,0.7S4.8,1.2,4.5,1.2h-4C0.2,1.2,0,1,0,0.7"/>
</svg>
