<svg id="icono" xmlns="http://www.w3.org/2000/svg" viewBox="0 0 16 15"><defs><style>.cls-1{fill:#ffb7b2;}.cls-1,.cls-2,.cls-3,.cls-4{fill-rule:evenodd;}.cls-2{fill:#84a59e;}.cls-3{fill:#f28582;}.cls-4{fill:#f5bd60;}</style></defs><title>Icon</title><path class="cls-1" d="M0,6.74a.5.5,0,0,1,.5-.5h6a.5.5,0,0,1,0,1H.5a.5.5,0,0,1-.5-.5" transform="translate(0 -0.24)"/><path class="cls-1" d="M8,6.74a.5.5,0,0,1,.5-.5h5a.5.5,0,0,1,0,1h-5a.5.5,0,0,1-.5-.5" transform="translate(0 -0.24)"/><path class="cls-1" d="M0,8.74a.5.5,0,0,1,.5-.5h5a.5.5,0,0,1,0,1H.5a.5.5,0,0,1-.5-.5" transform="translate(0 -0.24)"/><path class="cls-1" d="M7,8.74a.5.5,0,0,1,.5-.5h7a.5.5,0,0,1,0,1h-7a.5.5,0,0,1-.5-.5" transform="translate(0 -0.24)"/><path class="cls-2" d="M0,4.74a.5.5,0,0,1,.5-.5h3a.5.5,0,0,1,0,1H.5a.5.5,0,0,1-.5-.5" transform="translate(0 -0.24)"/><path class="cls-2" d="M5,4.74a.5.5,0,0,1,.5-.5h5a.5.5,0,0,1,0,1h-5a.5.5,0,0,1-.5-.5" transform="translate(0 -0.24)"/><path class="cls-2" d="M12,4.74a.5.5,0,0,1,.5-.5h3a.5.5,0,0,1,0,1h-3a.5.5,0,0,1-.5-.5" transform="translate(0 -0.24)"/><path class="cls-2" d="M0,10.74a.5.5,0,0,1,.5-.5h8a.5.5,0,0,1,0,1H.5a.5.5,0,0,1-.5-.5" transform="translate(0 -0.24)"/><path class="cls-3" d="M8.67,2.74a.5.5,0,0,1,.5-.5h5a.5.5,0,0,1,0,1h-5a.5.5,0,0,1-.5-.5" transform="translate(0 -0.24)"/><path class="cls-3" d="M0,12.74a.5.5,0,0,1,.5-.5h4a.5.5,0,1,1,0,1H.5a.5.5,0,0,1-.5-.5" transform="translate(0 -0.24)"/><path class="cls-3" d="M0,2.74a.5.5,0,0,1,.5-.5h7a.5.5,0,0,1,0,1H.5a.5.5,0,0,1-.5-.5" transform="translate(0 -0.24)"/><path class="cls-4" d="M0,14.74a.5.5,0,0,1,.5-.5h2a.5.5,0,1,1,0,1H.5a.5.5,0,0,1-.5-.5" transform="translate(0 -0.24)"/><path class="cls-4" d="M0,.74A.5.5,0,0,1,.5.24h4a.5.5,0,0,1,.5.5.5.5,0,0,1-.5.5H.5A.5.5,0,0,1,0,.74" transform="translate(0 -0.24)"/></svg>